<?xml version="1.0" encoding="UTF-8" standalone="no"?>
<svg
   style="isolation:isolate"
   width="256"
   height="256"
   viewBox="0 0 256 256"
   version="1.1"
   id="svg11"
   sodipodi:docname="folder-templates-open.svg"
   inkscape:version="1.3 (0e150ed6c4, 2023-07-21)"
   xmlns:inkscape="http://www.inkscape.org/namespaces/inkscape"
   xmlns:sodipodi="http://sodipodi.sourceforge.net/DTD/sodipodi-0.dtd"
   xmlns="http://www.w3.org/2000/svg"
   xmlns:svg="http://www.w3.org/2000/svg">
  <defs
     id="defs11" />
  <sodipodi:namedview
     id="namedview11"
     pagecolor="#505050"
     bordercolor="#eeeeee"
     borderopacity="1"
     inkscape:showpageshadow="0"
     inkscape:pageopacity="0"
     inkscape:pagecheckerboard="0"
     inkscape:deskcolor="#505050"
     inkscape:zoom="3.1523438"
     inkscape:cx="128"
     inkscape:cy="128"
     inkscape:window-width="1920"
     inkscape:window-height="1013"
     inkscape:window-x="0"
     inkscape:window-y="30"
     inkscape:window-maximized="1"
     inkscape:current-layer="svg11" />
  <g
     id="g11">
    <path
       fill="#7DC4E4"
       d="M 53.705 21 C 17.39 21 13.667 23.055 13.667 59.371 L 13.667 151.538 L 243.667 151.538 L 243.667 79.563 C 243.667 43.247 239.943 37.461 203.628 37.461 L 114.292 37.461 L 97.864 21 L 53.705 21 Z"
       id="path1"
       style="fill:#ab67e4;fill-opacity:1" />
    <defs
       id="defs1">
      <filter
         id="HTzZ1OnLPaw1DjdGt1SPd7l6XV8KnKrt"
         width="1.1046254"
         height="1.1975521"
         x="-0.052312692"
         y="-0.098776038"
         color-interpolation-filters="sRGB"
         filterUnits="objectBoundingBox">
        <feGaussianBlur
           in="SourceGraphic"
           stdDeviation="4.294"
           id="feGaussianBlur1" />
        <feOffset
           dx="0"
           dy="0"
           result="pf_100_offsetBlur"
           id="feOffset1" />
        <feFlood
           flood-opacity=".4"
           id="feFlood1" />
        <feComposite
           in2="pf_100_offsetBlur"
           operator="in"
           result="pf_100_dropShadow"
           id="feComposite1" />
        <feBlend
           in="SourceGraphic"
           in2="pf_100_dropShadow"
           mode="normal"
           id="feBlend1" />
      </filter>
    </defs>
    <g
       filter="url(#HTzZ1OnLPaw1DjdGt1SPd7l6XV8KnKrt)"
       id="g2">
      <path
         fill="#ebebeb"
         d="M 40.767 56.667 L 216.9 56.667 C 222.658 56.667 227.333 61.342 227.333 67.1 L 227.333 150.567 C 227.333 156.325 222.658 161 216.9 161 L 40.767 161 C 35.008 161 30.333 156.325 30.333 150.567 L 30.333 67.1 C 30.333 61.342 35.008 56.667 40.767 56.667 Z"
         id="path2" />
    </g>
    <path
       fill="#24273A"
       d="M 53.705 100.384 C 17.388 100.384 13.667 104.114 13.667 140.429 L 13.667 194.953 C 13.667 231.269 17.388 235 53.705 235 L 203.628 235 C 239.945 235 243.667 231.269 243.667 194.953 L 243.667 123.969 C 243.667 87.653 239.945 83.922 203.628 83.922 L 120.197 83.922 L 103.759 100.384 L 53.705 100.384 Z"
       id="path3" />
    <linearGradient
       id="_lgradient_10"
       x1="0"
       x2="0"
       y1=".5"
       y2="-.5"
       gradientTransform="matrix(230,0,0,151.078,13.667,83.922)"
       gradientUnits="userSpaceOnUse">
      <stop
         offset="0%"
         stop-opacity=".07"
         style="stop-color:#fff"
         id="stop3" />
      <stop
         offset="67.282%"
         stop-opacity="0"
         style="stop-color:#fcefe8"
         id="stop4" />
    </linearGradient>
    <path
       fill="url(#_lgradient_10)"
       d="M 53.705 100.384 C 17.388 100.384 13.667 104.114 13.667 140.429 L 13.667 194.953 C 13.667 231.269 17.388 235 53.705 235 L 203.628 235 C 239.945 235 243.667 231.269 243.667 194.953 L 243.667 123.969 C 243.667 87.653 239.945 83.922 203.628 83.922 L 120.197 83.922 L 103.759 100.384 L 53.705 100.384 Z"
       id="path4" />
    <g
       opacity=".4"
       id="g6">
      <radialGradient
         id="_rgradient_20"
         cx=".5"
         cy=".5"
         r=".272"
         fx=".5"
         fy=".136"
         gradientTransform="matrix(230,0,0,60.62,13.667,21)"
         gradientUnits="userSpaceOnUse">
        <stop
           offset="0%"
           style="stop-color:#fff"
           id="stop5" />
        <stop
           offset="100%"
           stop-opacity=".204"
           style="stop-color:#fff"
           id="stop6" />
      </radialGradient>
      <path
         fill="url(#_rgradient_20)"
         d="M 53.705 21 C 17.39 21 13.667 23.055 13.667 59.371 L 13.667 61.43 C 13.667 25.114 17.39 23.057 53.705 23.057 L 97.864 23.057 L 114.292 39.518 L 203.628 39.518 C 239.943 39.518 243.667 45.304 243.667 81.62 L 243.667 79.563 C 243.667 43.247 239.943 37.461 203.628 37.461 L 114.292 37.461 L 97.864 21 L 53.705 21 Z"
         id="path6" />
    </g>
    <g
       opacity=".4"
       id="g8">
      <radialGradient
         id="_rgradient_21"
         cx=".5"
         cy=".5"
         r=".272"
         fx=".482"
         fy=".211"
         gradientTransform="matrix(230,0,0,58.565,13.667,83.922)"
         gradientUnits="userSpaceOnUse">
        <stop
           offset="0%"
           style="stop-color:#fff"
           id="stop7" />
        <stop
           offset="100%"
           stop-opacity=".204"
           style="stop-color:#fff"
           id="stop8" />
      </radialGradient>
      <path
         fill="url(#_rgradient_21)"
         d="M 120.197 83.922 L 103.759 100.384 L 53.705 100.384 C 17.39 100.384 13.667 104.112 13.667 140.427 L 13.667 142.487 C 13.667 106.171 17.39 102.441 53.705 102.441 L 103.759 102.441 L 120.197 85.981 L 203.628 85.981 C 239.943 85.981 243.667 89.708 243.667 126.024 L 243.667 123.967 C 243.667 87.651 239.943 83.922 203.628 83.922 L 120.197 83.922 Z"
         id="path8" />
    </g>
    <g
       opacity=".1"
       id="g9">
      <path
         fill="#ffffff"
         d="M 243.667 167.096 L 177.952 232.941 L 203.628 232.941 C 239.943 232.941 243.667 229.214 243.667 192.898 L 243.667 167.096 Z"
         id="path9" />
    </g>
    <g
       opacity=".2"
       id="g10">
      <path
         d="M 13.667 192.898 L 13.667 194.955 C 13.667 231.271 17.39 235 53.705 235 L 203.628 235 C 239.943 235 243.667 231.271 243.667 194.955 L 243.667 192.898 C 243.667 229.214 239.943 232.941 203.628 232.941 L 53.705 232.941 C 17.39 232.941 13.667 229.214 13.667 192.898 Z"
         id="path10" />
    </g>
  </g>
  <path
     fill="#F5A97F"
     d="M 92.223 114 L 92.223 155.217 L 96.2 155.217 L 96.2 117.999 L 167.773 117.999 L 167.773 193.977 L 151.868 193.977 L 151.868 209.972 L 133.755 209.972 L 133.755 213.971 L 154.85 213.971 L 171.75 196.976 L 171.75 114 L 92.223 114 Z M 108.129 130.224 L 108.129 134.222 L 155.844 134.222 L 155.844 130.224 L 108.129 130.224 Z M 108.129 142.22 L 108.129 146.219 L 155.844 146.219 L 155.844 142.22 L 108.129 142.22 L 108.129 142.22 Z M 108.129 154.217 L 108.129 158.216 L 155.844 158.216 L 155.844 154.217 L 108.129 154.217 Z M 92.202 160.215 L 92.202 170.213 L 96.178 170.213 L 96.178 160.215 L 92.202 160.215 L 92.202 160.215 Z M 108.129 166.213 L 108.129 170.213 L 131.987 170.213 L 131.987 166.213 L 108.129 166.213 L 108.129 166.213 Z M 92.202 175.211 L 92.202 185.208 L 96.178 185.208 L 96.178 175.211 L 92.202 175.211 Z M 92.202 194.006 L 92.202 202.003 L 84.25 202.003 L 84.25 206.002 L 92.202 206.002 L 92.202 214 L 96.178 214 L 96.178 206.002 L 104.131 206.002 L 104.131 202.003 L 96.178 202.003 L 96.178 194.006 L 92.202 194.006 L 92.202 194.006 Z M 103.933 209.972 L 103.933 213.971 L 113.874 213.971 L 113.874 209.972 L 103.933 209.972 L 103.933 209.972 Z M 118.844 209.972 L 118.844 213.971 L 128.785 213.971 L 128.785 209.972 L 118.844 209.972 Z"
     id="path11" />
</svg>
