<?xml version="1.0" encoding="UTF-8" standalone="no"?>
<svg
   style="isolation:isolate"
   width="256"
   height="256"
   version="1.1"
   id="svg10"
   sodipodi:docname="folder-oomox-git.svg"
   inkscape:version="1.3 (0e150ed6c4, 2023-07-21)"
   xmlns:inkscape="http://www.inkscape.org/namespaces/inkscape"
   xmlns:sodipodi="http://sodipodi.sourceforge.net/DTD/sodipodi-0.dtd"
   xmlns="http://www.w3.org/2000/svg"
   xmlns:svg="http://www.w3.org/2000/svg">
  <defs
     id="defs10" />
  <sodipodi:namedview
     id="namedview10"
     pagecolor="#505050"
     bordercolor="#eeeeee"
     borderopacity="1"
     inkscape:showpageshadow="0"
     inkscape:pageopacity="0"
     inkscape:pagecheckerboard="0"
     inkscape:deskcolor="#505050"
     inkscape:zoom="3.1523438"
     inkscape:cx="128"
     inkscape:cy="128"
     inkscape:window-width="1920"
     inkscape:window-height="1013"
     inkscape:window-x="0"
     inkscape:window-y="30"
     inkscape:window-maximized="1"
     inkscape:current-layer="svg10" />
  <path
     fill="#7DC4E4"
     d="M53.039 21C16.724 21 13 23.055 13 59.371v52.167h230V79.563c0-36.316-3.724-42.102-40.039-42.102h-89.336L97.198 21H53.039z"
     id="path1"
     style="fill:#ab67e4;fill-opacity:1" />
  <path
     fill="#24273A"
     d="M53.039 70.384C16.722 70.384 13 74.114 13 110.429v84.524C13 231.269 16.722 235 53.039 235h149.922c36.317 0 40.039-3.731 40.039-40.047V93.969c0-36.316-3.722-40.047-40.039-40.047H119.53l-16.438 16.462H53.039z"
     id="path2" />
  <linearGradient
     id="a"
     x2="0"
     y1=".5"
     y2="-.5"
     gradientTransform="matrix(230 0 0 181.078 13 53.922)"
     gradientUnits="userSpaceOnUse">
    <stop
       offset="0%"
       stop-color="#ffffff"
       stop-opacity=".07"
       id="stop2" />
    <stop
       offset="67.282%"
       stop-color="#fcefe8"
       stop-opacity="0"
       id="stop3" />
  </linearGradient>
  <path
     fill="url(#a)"
     d="M53.039 70.384C16.722 70.384 13 74.114 13 110.429v84.524C13 231.269 16.722 235 53.039 235h149.922c36.317 0 40.039-3.731 40.039-40.047V93.969c0-36.316-3.722-40.047-40.039-40.047H119.53l-16.438 16.462H53.039z"
     id="path3" />
  <g
     opacity=".4"
     id="g5">
    <radialGradient
       id="b"
       cx=".5"
       cy=".5"
       r=".272"
       fx=".5"
       fy=".136"
       gradientTransform="matrix(230 0 0 60.62 13 21)"
       gradientUnits="userSpaceOnUse">
      <stop
         offset="0%"
         stop-color="#ffffff"
         id="stop4" />
      <stop
         offset="100%"
         stop-color="#ffffff"
         stop-opacity=".204"
         id="stop5" />
    </radialGradient>
    <path
       fill="url(#b)"
       d="M53.039 21C16.724 21 13 23.055 13 59.371v2.059c0-36.316 3.724-38.373 40.039-38.373h44.159l16.427 16.461h89.336c36.315 0 40.039 5.786 40.039 42.102v-2.057c0-36.316-3.724-42.102-40.039-42.102h-89.336L97.198 21H53.039z"
       id="path5" />
  </g>
  <g
     opacity=".4"
     id="g7">
    <radialGradient
       id="c"
       cx=".5"
       cy=".5"
       r=".272"
       fx=".482"
       fy=".211"
       gradientTransform="matrix(230 0 0 58.565 13 53.922)"
       gradientUnits="userSpaceOnUse">
      <stop
         offset="0%"
         stop-color="#ffffff"
         id="stop6" />
      <stop
         offset="100%"
         stop-color="#ffffff"
         stop-opacity=".204"
         id="stop7" />
    </radialGradient>
    <path
       fill="url(#c)"
       d="M119.53 53.922l-16.438 16.462H53.039C16.724 70.384 13 74.112 13 110.427v2.06c0-36.316 3.724-40.046 40.039-40.046h50.053l16.438-16.46h83.431c36.315 0 40.039 3.727 40.039 40.043v-2.057c0-36.316-3.724-40.045-40.039-40.045H119.53z"
       id="path7" />
  </g>
  <path
     fill="#ffffff"
     opacity=".1"
     d="M243 167.096l-65.715 65.845h25.676c36.315 0 40.039-3.727 40.039-40.043v-25.802z"
     id="path8" />
  <path
     opacity=".2"
     d="M13 192.898v2.057C13 231.271 16.724 235 53.039 235h149.922c36.315 0 40.039-3.729 40.039-40.045v-2.057c0 36.316-3.724 40.043-40.039 40.043H53.039c-36.315 0-40.039-3.727-40.039-40.043z"
     id="path9" />
  <g
     fill="#F5A97F"
     id="g10">
    <path
       d="M185.737 146.654l-52.396-52.391c-3.013-3.017-7.909-3.017-10.927 0l-10.877 10.882 13.798 13.802a9.174 9.174 0 0 1 9.442 2.202c2.57 2.575 3.29 6.28 2.182 9.501l13.3 13.3c3.221-1.112 6.931-.393 9.501 2.182 3.591 3.591 3.591 9.41 0 13.005a9.195 9.195 0 0 1-13.008 0 9.2 9.2 0 0 1-2.003-10l-12.404-12.405v32.645a9.175 9.175 0 0 1 2.432 1.739c3.59 3.591 3.59 9.41 0 13.009a9.198 9.198 0 0 1-13.005 0 9.203 9.203 0 0 1 3.014-15.016V136.16a9.093 9.093 0 0 1-3.014-2.007c-2.718-2.718-3.373-6.715-1.979-10.056l-13.604-13.608-35.926 35.925a7.733 7.733 0 0 0 0 10.932l52.396 52.391a7.733 7.733 0 0 0 10.932 0l52.146-52.151a7.733 7.733 0 0 0 0-10.932z"
       id="path10" />
  </g>
</svg>
