<?xml version="1.0" encoding="UTF-8" standalone="no"?>
<svg
   style="isolation:isolate"
   width="256"
   height="256"
   version="1.1"
   id="svg10"
   sodipodi:docname="folder-script.svg"
   inkscape:version="1.3 (0e150ed6c4, 2023-07-21)"
   xmlns:inkscape="http://www.inkscape.org/namespaces/inkscape"
   xmlns:sodipodi="http://sodipodi.sourceforge.net/DTD/sodipodi-0.dtd"
   xmlns="http://www.w3.org/2000/svg"
   xmlns:svg="http://www.w3.org/2000/svg">
  <defs
     id="defs10" />
  <sodipodi:namedview
     id="namedview10"
     pagecolor="#505050"
     bordercolor="#eeeeee"
     borderopacity="1"
     inkscape:showpageshadow="0"
     inkscape:pageopacity="0"
     inkscape:pagecheckerboard="0"
     inkscape:deskcolor="#505050"
     inkscape:zoom="3.1523438"
     inkscape:cx="128"
     inkscape:cy="128"
     inkscape:window-width="1920"
     inkscape:window-height="1013"
     inkscape:window-x="0"
     inkscape:window-y="30"
     inkscape:window-maximized="1"
     inkscape:current-layer="svg10" />
  <path
     fill="#7DC4E4"
     d="M53.039 21C16.724 21 13 23.055 13 59.371v52.167h230V79.563c0-36.316-3.724-42.102-40.039-42.102h-89.336L97.198 21H53.039z"
     id="path1"
     style="fill:#ab67e4;fill-opacity:1" />
  <path
     fill="#24273A"
     d="M53.039 70.384C16.722 70.384 13 74.114 13 110.429v84.524C13 231.269 16.722 235 53.039 235h149.922c36.317 0 40.039-3.731 40.039-40.047V93.969c0-36.316-3.722-40.047-40.039-40.047H119.53l-16.438 16.462H53.039z"
     id="path2" />
  <linearGradient
     id="a"
     x2="0"
     y1=".5"
     y2="-.5"
     gradientTransform="matrix(230 0 0 181.078 13 53.922)"
     gradientUnits="userSpaceOnUse">
    <stop
       offset="0%"
       stop-color="#ffffff"
       stop-opacity=".07"
       id="stop2" />
    <stop
       offset="67.282%"
       stop-color="#fcefe8"
       stop-opacity="0"
       id="stop3" />
  </linearGradient>
  <path
     fill="url(#a)"
     d="M53.039 70.384C16.722 70.384 13 74.114 13 110.429v84.524C13 231.269 16.722 235 53.039 235h149.922c36.317 0 40.039-3.731 40.039-40.047V93.969c0-36.316-3.722-40.047-40.039-40.047H119.53l-16.438 16.462H53.039z"
     id="path3" />
  <g
     opacity=".4"
     id="g5">
    <radialGradient
       id="b"
       cx=".5"
       cy=".5"
       r=".272"
       fx=".5"
       fy=".136"
       gradientTransform="matrix(230 0 0 60.62 13 21)"
       gradientUnits="userSpaceOnUse">
      <stop
         offset="0%"
         stop-color="#ffffff"
         id="stop4" />
      <stop
         offset="100%"
         stop-color="#ffffff"
         stop-opacity=".204"
         id="stop5" />
    </radialGradient>
    <path
       fill="url(#b)"
       d="M53.039 21C16.724 21 13 23.055 13 59.371v2.059c0-36.316 3.724-38.373 40.039-38.373h44.159l16.427 16.461h89.336c36.315 0 40.039 5.786 40.039 42.102v-2.057c0-36.316-3.724-42.102-40.039-42.102h-89.336L97.198 21H53.039z"
       id="path5" />
  </g>
  <g
     opacity=".4"
     id="g7">
    <radialGradient
       id="c"
       cx=".5"
       cy=".5"
       r=".272"
       fx=".482"
       fy=".211"
       gradientTransform="matrix(230 0 0 58.565 13 53.922)"
       gradientUnits="userSpaceOnUse">
      <stop
         offset="0%"
         stop-color="#ffffff"
         id="stop6" />
      <stop
         offset="100%"
         stop-color="#ffffff"
         stop-opacity=".204"
         id="stop7" />
    </radialGradient>
    <path
       fill="url(#c)"
       d="M119.53 53.922l-16.438 16.462H53.039C16.724 70.384 13 74.112 13 110.427v2.06c0-36.316 3.724-40.046 40.039-40.046h50.053l16.438-16.46h83.431c36.315 0 40.039 3.727 40.039 40.043v-2.057c0-36.316-3.724-40.045-40.039-40.045H119.53z"
       id="path7" />
  </g>
  <path
     fill="#ffffff"
     opacity=".1"
     d="M243 167.096l-65.715 65.845h25.676c36.315 0 40.039-3.727 40.039-40.043v-25.802z"
     id="path8" />
  <path
     opacity=".2"
     d="M13 192.898v2.057C13 231.271 16.724 235 53.039 235h149.922c36.315 0 40.039-3.729 40.039-40.045v-2.057c0 36.316-3.724 40.043-40.039 40.043H53.039c-36.315 0-40.039-3.727-40.039-40.043z"
     id="path9" />
  <g
     fill="#F5A97F"
     id="g10">
    <path
       fill-rule="evenodd"
       d="M121.785 145.355h25.366v6.396h-25.366v-6.396zm-51.984-38.586c-2.445 24.73-2.382 63.198.082 89.855.647 7 6.86 13.145 13.866 13.714 26.674 2.168 64.786 2.232 88.763.098 7.002-.623 13.203-6.813 13.838-13.813.708-7.787 1.649-27.638 1.649-46.891 0-19.091-.925-37.596-1.477-42.87-.73-6.992-7.02-13.02-14.035-13.455-29.83-1.848-67.814-1.817-88.731-.259-7.01.522-13.263 6.626-13.955 13.621zm32.96 25.796v6.395h3.171c1.776.064 3.171-1.407 3.171-3.197 0-1.791-1.395-3.198-3.171-3.198h-3.171zm-6.341-6.395v-6.395h-3.171c-1.775 0-3.17 1.407-3.17 3.197 0 1.791 1.395 3.198 3.17 3.198h3.171zm6.341-12.79v-6.395H96.42v6.395h-3.171c-5.263 0-9.512 4.284-9.512 9.592 0 5.308 4.249 9.593 9.512 9.593h3.171v6.395H84.308c1.332 3.709 4.82 6.395 8.941 6.395h3.171v6.396h6.341v-6.396h3.171c5.263 0 9.512-4.284 9.512-9.592 0-5.308-4.249-9.593-9.512-9.593h-3.171v-6.395h12.112c-1.331-3.709-4.819-6.395-8.941-6.395h-3.171z"
       id="path10" />
  </g>
</svg>
