<?xml version="1.0" encoding="UTF-8" standalone="no"?>
<svg
   style="isolation:isolate"
   width="256"
   height="256"
   version="1.1"
   id="svg10"
   sodipodi:docname="folder-oomox-gitlab.svg"
   inkscape:version="1.3 (0e150ed6c4, 2023-07-21)"
   xmlns:inkscape="http://www.inkscape.org/namespaces/inkscape"
   xmlns:sodipodi="http://sodipodi.sourceforge.net/DTD/sodipodi-0.dtd"
   xmlns="http://www.w3.org/2000/svg"
   xmlns:svg="http://www.w3.org/2000/svg">
  <defs
     id="defs10" />
  <sodipodi:namedview
     id="namedview10"
     pagecolor="#505050"
     bordercolor="#eeeeee"
     borderopacity="1"
     inkscape:showpageshadow="0"
     inkscape:pageopacity="0"
     inkscape:pagecheckerboard="0"
     inkscape:deskcolor="#505050"
     inkscape:zoom="3.1523438"
     inkscape:cx="128"
     inkscape:cy="128"
     inkscape:window-width="1920"
     inkscape:window-height="1013"
     inkscape:window-x="0"
     inkscape:window-y="30"
     inkscape:window-maximized="1"
     inkscape:current-layer="svg10" />
  <path
     fill="#7DC4E4"
     d="M53.705 21c-36.315 0-40.038 2.055-40.038 38.371v52.167h230V79.563c0-36.316-3.724-42.102-40.04-42.102h-89.335L97.864 21H53.705z"
     id="path1"
     style="fill:#ab67e4;fill-opacity:1" />
  <path
     fill="#24273A"
     d="M53.705 70.384c-36.317 0-40.038 3.73-40.038 40.045v84.524c0 36.316 3.721 40.047 40.038 40.047h149.923c36.317 0 40.039-3.731 40.039-40.047V93.969c0-36.316-3.722-40.047-40.04-40.047h-83.43l-16.438 16.462H53.705z"
     id="path2" />
  <linearGradient
     id="a"
     x2="0"
     y1=".5"
     y2="-.5"
     gradientTransform="matrix(230 0 0 181.07847 13.667 53.922)"
     gradientUnits="userSpaceOnUse">
    <stop
       offset="0%"
       stop-color="#ffffff"
       stop-opacity=".07"
       id="stop2" />
    <stop
       offset="67.282%"
       stop-color="#fcefe8"
       stop-opacity="0"
       id="stop3" />
  </linearGradient>
  <path
     fill="url(#a)"
     d="M53.705 70.384c-36.317 0-40.038 3.73-40.038 40.045v84.524c0 36.316 3.721 40.047 40.038 40.047h149.923c36.317 0 40.039-3.731 40.039-40.047V93.969c0-36.316-3.722-40.047-40.04-40.047h-83.43l-16.438 16.462H53.705z"
     id="path3" />
  <g
     opacity=".4"
     id="g5">
    <radialGradient
       id="b"
       cx=".5"
       cy=".5"
       r=".272"
       fx=".5"
       fy=".136"
       gradientTransform="matrix(230 0 0 60.62014 13.667 21)"
       gradientUnits="userSpaceOnUse">
      <stop
         offset="0%"
         stop-color="#ffffff"
         id="stop4" />
      <stop
         offset="100%"
         stop-color="#ffffff"
         stop-opacity=".204"
         id="stop5" />
    </radialGradient>
    <path
       fill="url(#b)"
       d="M53.705 21c-36.315 0-40.038 2.055-40.038 38.371v2.06c0-36.317 3.723-38.374 40.038-38.374h44.16l16.427 16.46h89.336c36.315 0 40.039 5.787 40.039 42.103v-2.057c0-36.316-3.724-42.102-40.04-42.102h-89.335L97.864 21H53.705z"
       id="path5" />
  </g>
  <g
     opacity=".4"
     id="g7">
    <radialGradient
       id="c"
       cx=".5"
       cy=".5"
       r=".272"
       fx=".482"
       fy=".211"
       gradientTransform="matrix(230 0 0 58.56504 13.667 53.922)"
       gradientUnits="userSpaceOnUse">
      <stop
         offset="0%"
         stop-color="#ffffff"
         id="stop6" />
      <stop
         offset="100%"
         stop-color="#ffffff"
         stop-opacity=".204"
         id="stop7" />
    </radialGradient>
    <path
       fill="url(#c)"
       d="M120.197 53.922l-16.438 16.462H53.705c-36.315 0-40.038 3.728-40.038 40.043v2.06c0-36.316 3.723-40.046 40.038-40.046h50.054l16.438-16.46h83.43c36.316 0 40.04 3.727 40.04 40.043v-2.057c0-36.316-3.724-40.045-40.04-40.045h-83.43z"
       id="path7" />
  </g>
  <path
     fill="#ffffff"
     opacity=".1"
     d="M243.667 167.096l-65.715 65.845h25.676c36.315 0 40.039-3.727 40.039-40.043v-25.802z"
     id="path8" />
  <path
     opacity=".2"
     d="M13.667 192.898v2.057C13.667 231.27 17.39 235 53.705 235h149.923c36.315 0 40.039-3.73 40.039-40.045v-2.057c0 36.316-3.724 40.043-40.04 40.043H53.706c-36.315 0-40.038-3.727-40.038-40.043z"
     id="path9" />
  <g
     fill="#F5A97F"
     id="g10">
    <path
       d="M161.944 97a2.62 2.62 0 0 0-2.517 1.81l-12.973 40.095h-36.907L96.575 98.81A2.63 2.63 0 0 0 94.149 97a2.627 2.627 0 0 0-2.505 1.698l-15.633 41.886c-.01 0-.01.01-.02.018l-7.827 20.952a2.625 2.625 0 0 0 .918 3.039l57.37 41.886.01.02c.01 0 .01 0 .01.011l.104.06c.04.021.068.053.11.071.01 0 .01.01.02.01 0 0 .011.011.022.011.01.01.02.021.039.021l.041.032c.053.018.113.052.173.07v.01l.174.061c.01 0 .01 0 .021.01.045.012.088.026.13.042.022 0 .042.01.074.01 0 .011 0 .011 0 0 .052.022.102.03.151.04l.204.032c.104 0 .213.01.318.01.102-.01.193-.01.284-.031.042 0 .07 0 .112-.01h.021c.021-.011.029-.011.052-.011.008 0 .019-.008.04-.008.02-.01.052-.01.07-.021.035-.01.07-.02.104-.032.019 0 .029 0 .04-.01h.03c.092-.03.181-.067.267-.113.008 0 .008 0 .018-.01.01 0 .02 0 .031-.01l.06-.03c.056-.029.111-.06.165-.094.018-.008.028-.018.039-.029.01 0 .02-.01.031-.01.042-.031.081-.052.123-.081l.02-.032 57.37-41.873a2.631 2.631 0 0 0 .904-3.038l-7.805-20.881a.19.19 0 0 1-.02-.074l-15.652-41.904a2.612 2.612 0 0 0-2.41-1.698h-.003zm-78.118 47.143h21.931l15.273 47.185-37.204-47.185zm66.418 0h21.93l-37.203 47.185 15.273-47.185zm-70.993 2.64l34.89 44.246-40.39-29.493 5.5-14.753zm97.5 0l5.5 14.753-40.39 29.493 34.89-44.246z"
       id="path10" />
  </g>
</svg>
