<?xml version="1.0" encoding="UTF-8" standalone="no"?>
<svg
   style="isolation:isolate"
   width="256"
   height="256"
   version="1.1"
   id="svg10"
   sodipodi:docname="folder-oomox-gnome.svg"
   inkscape:version="1.3 (0e150ed6c4, 2023-07-21)"
   xmlns:inkscape="http://www.inkscape.org/namespaces/inkscape"
   xmlns:sodipodi="http://sodipodi.sourceforge.net/DTD/sodipodi-0.dtd"
   xmlns="http://www.w3.org/2000/svg"
   xmlns:svg="http://www.w3.org/2000/svg">
  <defs
     id="defs10" />
  <sodipodi:namedview
     id="namedview10"
     pagecolor="#505050"
     bordercolor="#eeeeee"
     borderopacity="1"
     inkscape:showpageshadow="0"
     inkscape:pageopacity="0"
     inkscape:pagecheckerboard="0"
     inkscape:deskcolor="#505050"
     inkscape:zoom="3.1523438"
     inkscape:cx="128"
     inkscape:cy="128"
     inkscape:window-width="1920"
     inkscape:window-height="1013"
     inkscape:window-x="0"
     inkscape:window-y="30"
     inkscape:window-maximized="1"
     inkscape:current-layer="svg10" />
  <path
     fill="#7DC4E4"
     d="M53.039 21C16.724 21 13 23.055 13 59.371v52.167h230V79.563c0-36.316-3.724-42.102-40.039-42.102h-89.336L97.198 21H53.039z"
     id="path1"
     style="fill:#ab67e4;fill-opacity:1" />
  <path
     fill="#24273A"
     d="M53.039 70.384C16.722 70.384 13 74.114 13 110.429v84.524C13 231.269 16.722 235 53.039 235h149.922c36.317 0 40.039-3.731 40.039-40.047V93.969c0-36.316-3.722-40.047-40.039-40.047H119.53l-16.438 16.462H53.039z"
     id="path2" />
  <linearGradient
     id="a"
     x2="0"
     y1=".5"
     y2="-.5"
     gradientTransform="matrix(230 0 0 181.078 13 53.922)"
     gradientUnits="userSpaceOnUse">
    <stop
       offset="0%"
       stop-color="#ffffff"
       stop-opacity=".07"
       id="stop2" />
    <stop
       offset="67.282%"
       stop-color="#fcefe8"
       stop-opacity="0"
       id="stop3" />
  </linearGradient>
  <path
     fill="url(#a)"
     d="M53.039 70.384C16.722 70.384 13 74.114 13 110.429v84.524C13 231.269 16.722 235 53.039 235h149.922c36.317 0 40.039-3.731 40.039-40.047V93.969c0-36.316-3.722-40.047-40.039-40.047H119.53l-16.438 16.462H53.039z"
     id="path3" />
  <g
     opacity=".4"
     id="g5">
    <radialGradient
       id="b"
       cx=".5"
       cy=".5"
       r=".272"
       fx=".5"
       fy=".136"
       gradientTransform="matrix(230 0 0 60.62 13 21)"
       gradientUnits="userSpaceOnUse">
      <stop
         offset="0%"
         stop-color="#ffffff"
         id="stop4" />
      <stop
         offset="100%"
         stop-color="#ffffff"
         stop-opacity=".204"
         id="stop5" />
    </radialGradient>
    <path
       fill="url(#b)"
       d="M53.039 21C16.724 21 13 23.055 13 59.371v2.059c0-36.316 3.724-38.373 40.039-38.373h44.159l16.427 16.461h89.336c36.315 0 40.039 5.786 40.039 42.102v-2.057c0-36.316-3.724-42.102-40.039-42.102h-89.336L97.198 21H53.039z"
       id="path5" />
  </g>
  <g
     opacity=".4"
     id="g7">
    <radialGradient
       id="c"
       cx=".5"
       cy=".5"
       r=".272"
       fx=".482"
       fy=".211"
       gradientTransform="matrix(230 0 0 58.565 13 53.922)"
       gradientUnits="userSpaceOnUse">
      <stop
         offset="0%"
         stop-color="#ffffff"
         id="stop6" />
      <stop
         offset="100%"
         stop-color="#ffffff"
         stop-opacity=".204"
         id="stop7" />
    </radialGradient>
    <path
       fill="url(#c)"
       d="M119.53 53.922l-16.438 16.462H53.039C16.724 70.384 13 74.112 13 110.427v2.06c0-36.316 3.724-40.046 40.039-40.046h50.053l16.438-16.46h83.431c36.315 0 40.039 3.727 40.039 40.043v-2.057c0-36.316-3.724-40.045-40.039-40.045H119.53z"
       id="path7" />
  </g>
  <path
     fill="#ffffff"
     opacity=".1"
     d="M243 167.096l-65.715 65.845h25.676c36.315 0 40.039-3.727 40.039-40.043v-25.802z"
     id="path8" />
  <path
     opacity=".2"
     d="M13 192.898v2.057C13 231.271 16.724 235 53.039 235h149.922c36.315 0 40.039-3.729 40.039-40.045v-2.057c0 36.316-3.724 40.043-40.039 40.043H53.039c-36.315 0-40.039-3.727-40.039-40.043z"
     id="path9" />
  <g
     fill="#F5A97F"
     id="g10">
    <path
       d="M163.574 92c-22.853 0-27.137 35.617-14.279 35.617 12.853 0 37.137-35.617 14.279-35.617zm-35.202 5.478c-.36 0-.742.037-1.152.079-12.956 1.675-8.397 24.157-1.503 24.577 6.665.406 13.974-24.614 2.642-24.656h.013zm-22.452 8.299c-.792-.051-1.67.101-2.646.512-10.41 4.385-1.58 22.482 4.248 21.268 5.288-1.103 6.049-21.272-1.602-21.78zm-16.989 14.797c-.905-.028-1.886.295-2.93 1.089-8.33 6.379 2.809 21.789 7.709 19.399 4.289-2.091 1.553-20.253-4.783-20.488h.004zm49.212 14.709c-18.051-.318-41.872 9.074-45.936 27.96C87.81 183.662 110.317 212 133.791 212c11.552 0 24.878-10.828 27.371-24.54 1.904-10.454-22.403-6.263-21.534.651 1.048 8.294-5.86 12.392-12.624 7.047-21.543-17.016 35.666-25.509 31.89-48.761-1.175-7.237-9.932-10.92-20.76-11.114h.009z"
       id="path10" />
  </g>
</svg>
