<?xml version="1.0" encoding="UTF-8" standalone="no"?>
<svg
   width="256"
   height="256"
   style="isolation:isolate"
   version="1.1"
   id="svg10"
   sodipodi:docname="folder-yandex-disk.svg"
   inkscape:version="1.3 (0e150ed6c4, 2023-07-21)"
   xmlns:inkscape="http://www.inkscape.org/namespaces/inkscape"
   xmlns:sodipodi="http://sodipodi.sourceforge.net/DTD/sodipodi-0.dtd"
   xmlns="http://www.w3.org/2000/svg"
   xmlns:svg="http://www.w3.org/2000/svg">
  <defs
     id="defs10" />
  <sodipodi:namedview
     id="namedview10"
     pagecolor="#505050"
     bordercolor="#eeeeee"
     borderopacity="1"
     inkscape:showpageshadow="0"
     inkscape:pageopacity="0"
     inkscape:pagecheckerboard="0"
     inkscape:deskcolor="#505050"
     inkscape:zoom="3.1523438"
     inkscape:cx="128"
     inkscape:cy="128"
     inkscape:window-width="1920"
     inkscape:window-height="1013"
     inkscape:window-x="0"
     inkscape:window-y="30"
     inkscape:window-maximized="1"
     inkscape:current-layer="svg10" />
  <path
     fill="#7DC4E4"
     d="M53.039 21C16.724 21 13 23.055 13 59.371v52.167h230V79.563c0-36.316-3.724-42.102-40.039-42.102h-89.336L97.198 21H53.039z"
     id="path1"
     style="fill:#ab67e4;fill-opacity:1" />
  <path
     fill="#24273A"
     d="M53.039 70.384C16.722 70.384 13 74.114 13 110.429v84.524C13 231.269 16.722 235 53.039 235h149.922c36.317 0 40.039-3.731 40.039-40.047V93.969c0-36.316-3.722-40.047-40.039-40.047H119.53l-16.438 16.462H53.039z"
     id="path2" />
  <linearGradient
     id="a"
     x2="0"
     y1=".5"
     y2="-.5"
     gradientTransform="matrix(230 0 0 181.078 13 53.922)"
     gradientUnits="userSpaceOnUse">
    <stop
       offset="0%"
       stop-color="#ffffff"
       stop-opacity=".07"
       id="stop2" />
    <stop
       offset="67.282%"
       stop-color="#fcefe8"
       stop-opacity="0"
       id="stop3" />
  </linearGradient>
  <path
     fill="url(#a)"
     d="M53.039 70.384C16.722 70.384 13 74.114 13 110.429v84.524C13 231.269 16.722 235 53.039 235h149.922c36.317 0 40.039-3.731 40.039-40.047V93.969c0-36.316-3.722-40.047-40.039-40.047H119.53l-16.438 16.462H53.039z"
     id="path3" />
  <g
     opacity=".4"
     id="g5">
    <radialGradient
       id="b"
       cx=".5"
       cy=".5"
       r=".272"
       fx=".5"
       fy=".136"
       gradientTransform="matrix(230 0 0 60.62 13 21)"
       gradientUnits="userSpaceOnUse">
      <stop
         offset="0%"
         stop-color="#ffffff"
         id="stop4" />
      <stop
         offset="100%"
         stop-color="#ffffff"
         stop-opacity=".204"
         id="stop5" />
    </radialGradient>
    <path
       fill="url(#b)"
       d="M53.039 21C16.724 21 13 23.055 13 59.371v2.059c0-36.316 3.724-38.373 40.039-38.373h44.159l16.427 16.461h89.336c36.315 0 40.039 5.786 40.039 42.102v-2.057c0-36.316-3.724-42.102-40.039-42.102h-89.336L97.198 21H53.039z"
       id="path5" />
  </g>
  <g
     opacity=".4"
     id="g7">
    <radialGradient
       id="c"
       cx=".5"
       cy=".5"
       r=".272"
       fx=".482"
       fy=".211"
       gradientTransform="matrix(230 0 0 58.565 13 53.922)"
       gradientUnits="userSpaceOnUse">
      <stop
         offset="0%"
         stop-color="#ffffff"
         id="stop6" />
      <stop
         offset="100%"
         stop-color="#ffffff"
         stop-opacity=".204"
         id="stop7" />
    </radialGradient>
    <path
       fill="url(#c)"
       d="M119.53 53.922l-16.438 16.462H53.039C16.724 70.384 13 74.112 13 110.427v2.06c0-36.316 3.724-40.046 40.039-40.046h50.053l16.438-16.46h83.431c36.315 0 40.039 3.727 40.039 40.043v-2.057c0-36.316-3.724-40.045-40.039-40.045H119.53z"
       id="path7" />
  </g>
  <path
     fill="#ffffff"
     opacity=".1"
     d="M243 167.096l-65.715 65.845h25.676c36.315 0 40.039-3.727 40.039-40.043v-25.802z"
     id="path8" />
  <path
     fill="#F5A97F"
     d="M121.195 106.999c-21.175 0-21.645 14.135-27.765 23.65 7.5-3.535 15.86-6.555 24.88-8.885 8.205-2.115 16.475-3.515 24.505-4.15-5.095-4.14-8.65-10.615-21.62-10.615zm29.06 20.245c-9.335.18-19.46 1.62-29.445 4.2-32.895 8.495-56.346 26.981-52.371 41.281 2.29 8.17 13.335 15.57 29.786 16.55-.01-.06-.025-.115-.03-.175v-.02c-.02-.145-.07-.275-.09-.42-.96-8.72 4.03-15.49 9.77-20.265 5.735-4.775 13.095-8.23 21.425-10.085 4.045-.905 8.12-1.36 12.13-1.31h.01c6.01.075 11.56 1.195 16.446 3.965 4.03 2.285 7.715 6.255 9.285 11.16 15.015-9.175 22.775-21.536 20.41-30.166-2.625-9.47-16.94-15.115-37.326-14.715zM141.31 167c-3.155-.04-6.495.33-9.835 1.075-13.78 3.07-24.275 11.8-23.425 19.49.85 7.695 12.71 11.435 26.495 8.36 13.78-3.075 24.256-11.8 23.406-19.49-.615-5.595-7.171-9.315-16.641-9.435z"
     id="path9" />
  <path
     opacity=".2"
     d="M13 192.898v2.057C13 231.271 16.724 235 53.039 235h149.922c36.315 0 40.039-3.729 40.039-40.045v-2.057c0 36.316-3.724 40.043-40.039 40.043H53.039c-36.315 0-40.039-3.727-40.039-40.043z"
     id="path10" />
</svg>
