<?xml version="1.0" encoding="UTF-8" standalone="no"?>
<!-- Created with Inkscape (http://www.inkscape.org/) -->

<svg
   width="210mm"
   height="297mm"
   viewBox="0 0 210 297"
   version="1.1"
   id="svg1"
   xml:space="preserve"
   inkscape:export-filename="dagger.svg"
   inkscape:export-xdpi="96"
   inkscape:export-ydpi="96"
   xmlns:inkscape="http://www.inkscape.org/namespaces/inkscape"
   xmlns:sodipodi="http://sodipodi.sourceforge.net/DTD/sodipodi-0.dtd"
   xmlns="http://www.w3.org/2000/svg"
   xmlns:svg="http://www.w3.org/2000/svg"><sodipodi:namedview
     id="namedview1"
     pagecolor="#505050"
     bordercolor="#eeeeee"
     borderopacity="1"
     inkscape:showpageshadow="0"
     inkscape:pageopacity="0"
     inkscape:pagecheckerboard="0"
     inkscape:deskcolor="#505050"
     inkscape:document-units="mm" /><defs
     id="defs1" /><g
     inkscape:label="Layer 1"
     inkscape:groupmode="layer"
     id="layer1"><path
       style="display:inline;fill:none;stroke:#000000;stroke-width:4.6;stroke-linecap:round;stroke-dasharray:none;stroke-opacity:1"
       d="m 60.185307,82.872672 98.465863,3.143866 c 4.0468,-1.310978 9.45569,-3.180427 11.49625,-7.477595 1.44959,3.425143 2.63252,5.15853 8.06667,7.482673 -6.26023,1.433991 -7.39841,4.449635 -8.55418,7.122867 -1.26267,-5.556091 -5.81058,-6.756036 -10.86275,-7.287349"
       id="path22"
       sodipodi:nodetypes="cccccc" /><path
       style="display:inline;fill:none;stroke:#000000;stroke-width:4.6;stroke-linecap:round;stroke-dasharray:none;stroke-opacity:1"
       d="m 59.757748,82.962058 c -5.891189,-1.261145 -9.462943,-5.334574 -11.663232,-8.515895 -2.466274,3.430617 -6.148852,6.10403 -9.250118,7.48929 2.940222,1.553404 6.811013,4.017504 9.093197,7.88292 2.002005,-3.624305 5.084366,-6.502264 11.820153,-6.856315 z"
       id="path21"
       sodipodi:nodetypes="ccccc" /><path
       style="display:inline;fill:none;stroke:#000000;stroke-width:4.6;stroke-linecap:round;stroke-dasharray:none;stroke-opacity:1"
       d="m 77.600953,41.250118 50.195057,0.555676 3.50736,-14.348257 -51.709632,-1.684904 z"
       id="path18" /><path
       style="display:inline;fill:none;stroke:#cc157b;stroke-width:2.3;stroke-linecap:round;stroke-dasharray:none;stroke-opacity:1"
       d="m 77.600953,41.250118 50.195057,0.555676 3.50736,-14.348257 -51.709632,-1.684904 z"
       id="path19" /><path
       style="display:inline;fill:none;stroke:#001500;stroke-width:4.6;stroke-linecap:round;stroke-dasharray:none;stroke-opacity:1"
       d="M 91.640333,41.399589 90.268276,83.634431 72.190686,108.67361 93.059568,129.11096 65.551874,173.80587 95.256449,272.234 102.78365,165.20407 136.52047,119.47081 115.71366,83.995943 116.1447,41.437826"
       id="path20" /></g><g
     id="g20"><path
       style="display:inline;fill:none;stroke:#cc157b;stroke-width:2.3;stroke-linecap:round;stroke-dasharray:none;stroke-opacity:1"
       d="m 60.185307,82.872672 98.465863,3.143866 c 4.0468,-1.310978 9.45569,-3.180427 11.49625,-7.477595 1.44959,3.425143 2.63252,5.15853 8.06667,7.482673 -6.26023,1.433991 -7.39841,4.449635 -8.55418,7.122867 -1.26267,-5.556091 -5.81058,-6.756036 -10.86275,-7.287349"
       id="path4"
       sodipodi:nodetypes="cccccc" /><path
       style="display:inline;fill:none;stroke:#cc157b;stroke-width:2.3;stroke-linecap:round;stroke-dasharray:none;stroke-opacity:1"
       d="m 77.600953,41.250118 50.195057,0.555676 3.50736,-14.348257 -51.709632,-1.684904 z"
       id="path1" /><path
       style="display:inline;fill:none;stroke:#cc157b;stroke-width:2.3;stroke-linecap:round;stroke-dasharray:none;stroke-opacity:1"
       d="M 91.640333,41.399589 90.268276,83.634431 72.190686,108.67361 93.059568,129.11096 65.551874,173.80587 95.256449,272.234 102.78365,165.20407 136.52047,119.47081 115.71366,83.995943 116.1447,41.437826"
       id="path2" /><path
       style="display:inline;fill:none;stroke:#cc157b;stroke-width:2.3;stroke-linecap:round;stroke-dasharray:none;stroke-opacity:1"
       d="m 59.757748,82.962058 c -5.891189,-1.261145 -9.462943,-5.334574 -11.663232,-8.515895 -2.466274,3.430617 -6.148852,6.10403 -9.250118,7.48929 2.940222,1.553404 6.811013,4.017504 9.093197,7.88292 2.002005,-3.624305 5.084366,-6.502264 11.820153,-6.856315 z"
       id="path3"
       sodipodi:nodetypes="ccccc" /></g></svg>
