<svg id="svg" xmlns="http://www.w3.org/2000/svg" xmlns:xlink="http://www.w3.org/1999/xlink" width="400" height="400" viewBox="0, 0, 400,400"><g id="svgg"><path id="path0" d="M63.281 8.741 C 50.916 10.910,47.994 19.537,52.345 41.023 C 53.635 47.391,54.583 52.709,54.452 52.840 C 54.321 52.971,46.322 50.458,36.677 47.255 C 18.418 41.192,16.571 40.826,11.658 42.298 C -2.389 46.507,-4.394 66.860,8.594 73.405 C 10.098 74.163,22.754 78.571,36.719 83.202 C 50.684 87.832,62.192 91.684,62.293 91.762 C 62.455 91.887,65.625 106.815,65.625 107.452 C 65.625 107.589,53.749 107.814,39.235 107.952 L 12.844 108.203 8.968 110.199 C -3.444 116.591,-2.991 134.940,9.722 140.714 C 12.670 142.053,15.756 142.154,54.106 142.170 L 95.321 142.188 122.661 155.862 L 150.000 169.536 150.000 180.397 L 150.000 191.258 146.680 193.221 C 141.425 196.328,133.639 205.724,131.835 211.135 C 131.690 211.571,129.204 210.307,126.310 208.327 C 111.267 198.027,99.035 194.581,75.391 193.979 C 58.247 193.542,55.145 193.976,50.540 197.455 C 42.709 203.371,41.999 212.678,48.574 223.207 C 55.160 233.753,56.117 235.566,60.941 246.643 C 75.718 280.573,95.608 294.727,131.164 296.614 L 140.843 297.127 143.426 302.717 C 149.233 315.286,151.513 325.043,151.553 337.500 C 151.659 370.369,170.597 391.463,200.000 391.463 C 229.124 391.463,248.314 370.394,248.439 338.281 C 248.491 324.989,250.656 315.527,256.574 302.717 L 259.157 297.127 268.836 296.614 C 303.134 294.793,324.718 279.951,337.985 249.063 C 342.762 237.940,345.901 231.881,351.378 223.207 C 358.009 212.705,357.315 203.390,349.460 197.455 C 344.855 193.976,341.753 193.542,324.609 193.979 C 300.965 194.581,288.733 198.027,273.690 208.327 C 270.796 210.307,268.310 211.571,268.165 211.135 C 266.354 205.702,258.605 196.386,253.320 193.287 L 250.000 191.340 250.000 180.438 L 250.000 169.536 277.339 155.862 L 304.679 142.188 345.894 142.170 C 384.244 142.154,387.330 142.053,390.278 140.714 C 402.991 134.940,403.444 116.591,391.032 110.199 L 387.156 108.203 360.765 107.952 C 346.251 107.814,334.375 107.589,334.375 107.452 C 334.375 106.815,337.545 91.887,337.707 91.762 C 337.808 91.684,349.844 87.666,364.453 82.833 C 382.862 76.743,391.855 73.390,393.750 71.910 C 404.332 63.643,401.133 46.130,388.342 42.298 C 383.429 40.826,381.582 41.192,363.323 47.255 C 353.678 50.458,345.679 52.971,345.548 52.840 C 345.417 52.709,346.386 47.358,347.701 40.949 C 350.745 26.123,350.639 20.349,347.235 15.506 C 340.038 5.267,323.977 6.324,318.242 17.415 C 317.612 18.632,313.471 37.746,309.038 59.890 L 300.979 100.152 295.607 105.640 C 290.696 110.657,261.117 127.002,259.634 125.519 C 259.471 125.356,261.126 118.054,263.313 109.291 C 267.612 92.062,267.777 89.343,264.866 83.637 C 259.121 72.375,241.534 72.137,235.402 83.238 C 234.449 84.964,229.881 101.578,225.051 120.885 L 216.406 155.442 216.406 172.587 L 216.406 189.733 211.914 191.148 C 205.828 193.065,194.172 193.065,188.086 191.148 L 183.594 189.733 183.594 172.587 L 183.594 155.442 174.949 120.885 C 170.119 101.578,165.551 84.964,164.598 83.238 C 158.787 72.718,143.007 72.193,136.177 82.292 C 132.067 88.370,132.107 90.631,136.656 109.035 C 138.857 117.940,140.513 125.372,140.335 125.550 C 138.983 126.903,108.605 109.904,104.002 105.219 L 99.020 100.148 90.944 59.799 C 85.163 30.922,82.376 18.577,81.140 16.377 C 77.829 10.487,70.701 7.439,63.281 8.741 M100.391 232.742 C 110.427 237.427,118.473 245.320,124.630 256.521 C 128.092 262.818,128.265 262.555,121.558 261.172 C 110.059 258.801,100.983 251.337,95.424 239.680 C 89.966 228.235,90.159 227.966,100.391 232.742 M308.182 231.445 C 305.119 241.863,295.836 253.987,287.817 258.045 C 284.295 259.828,273.518 262.686,272.759 262.039 C 272.189 261.554,278.344 251.152,281.815 246.733 C 289.353 237.139,310.034 225.148,308.182 231.445 " stroke="none" fill="#000000" fill-rule="evenodd"></path></g></svg>