<?xml version="1.0" encoding="UTF-8" standalone="no"?>
<svg
   width="24"
   height="24"
   version="1.1"
   id="svg3"
   sodipodi:docname="idle-low-signal-lock.svg"
   inkscape:version="1.3.1 (91b66b0783, 2023-11-16)"
   xmlns:inkscape="http://www.inkscape.org/namespaces/inkscape"
   xmlns:sodipodi="http://sodipodi.sourceforge.net/DTD/sodipodi-0.dtd"
   xmlns="http://www.w3.org/2000/svg"
   xmlns:svg="http://www.w3.org/2000/svg">
  <sodipodi:namedview
     id="namedview3"
     pagecolor="#505050"
     bordercolor="#eeeeee"
     borderopacity="1"
     inkscape:showpageshadow="0"
     inkscape:pageopacity="0"
     inkscape:pagecheckerboard="0"
     inkscape:deskcolor="#505050"
     inkscape:zoom="36.375"
     inkscape:cx="12.013746"
     inkscape:cy="12.013746"
     inkscape:window-width="1302"
     inkscape:window-height="1035"
     inkscape:window-x="0"
     inkscape:window-y="0"
     inkscape:window-maximized="1"
     inkscape:current-layer="svg3" />
  <defs
     id="defs1">
    <style
       id="current-color-scheme"
       type="text/css">
   .ColorScheme-Text { color:#F5A97F; } .ColorScheme-Highlight { color:#5294e2; }
  </style>
  </defs>
  <path
     style="fill:#f5a0ff;fill-opacity:1"
     class="ColorScheme-Text"
     d="m 17,13 c -1.108,0 -2,0.9109 -2,2.03125 V 16 h -1 v 4 h 6 V 16 H 19 V 15.03125 C 19,13.91135 18.108,13 17,13 Z m 0,1 c 0.554,0 1,0.4424 1,1 v 1 h -2 v -1 c 0,-0.5576 0.446,-1 1,-1 z"
     id="path1" />
  <path
     style="opacity:0.3;fill:#f5a0ff;fill-opacity:1"
     class="ColorScheme-Text"
     d="M 12,5 C 8.9494,5 6.0806,6.0732 4,8 l 8,11 1,-1.375 V 15 h 1.013672 C 14.033321,13.365092 15.356157,12 17,12 c 0.02882,0 0.05537,0.0089 0.08398,0.0098 L 20,8 C 17.919,6.0731 15.051,5 12,5 Z"
     id="path2" />
  <path
     style="fill:#f5a0ff;fill-opacity:1"
     class="ColorScheme-Text"
     d="M 12,10 A 7.5,7.5 0 0 0 6.9101562,12.001953 L 12,19 13,17.625 V 15 h 1.013672 C 14.033321,13.365092 15.356157,12 17,12 c 0.02882,0 0.05537,0.0089 0.08398,0.0098 l 0.0039,-0.0059 A 7.5,7.5 0 0 0 12,10 Z"
     id="path3" />
</svg>
