<?xml version="1.0" encoding="UTF-8" standalone="no"?>
<svg
   width="24"
   height="24"
   version="1.1"
   id="svg1"
   sodipodi:docname="network-wireless-no-route.svg"
   inkscape:version="1.3.1 (91b66b0783, 2023-11-16)"
   xmlns:inkscape="http://www.inkscape.org/namespaces/inkscape"
   xmlns:sodipodi="http://sodipodi.sourceforge.net/DTD/sodipodi-0.dtd"
   xmlns="http://www.w3.org/2000/svg"
   xmlns:svg="http://www.w3.org/2000/svg">
  <sodipodi:namedview
     id="namedview1"
     pagecolor="#505050"
     bordercolor="#eeeeee"
     borderopacity="1"
     inkscape:showpageshadow="0"
     inkscape:pageopacity="0"
     inkscape:pagecheckerboard="0"
     inkscape:deskcolor="#505050"
     inkscape:zoom="36.375"
     inkscape:cx="12.013746"
     inkscape:cy="12"
     inkscape:window-width="1356"
     inkscape:window-height="786"
     inkscape:window-x="0"
     inkscape:window-y="0"
     inkscape:window-maximized="1"
     inkscape:current-layer="svg1" />
  <defs
     id="defs1">
    <style
       id="current-color-scheme"
       type="text/css">
   .ColorScheme-Text { color:#F5A97F; } .ColorScheme-Highlight { color:#5294e2; }
  </style>
  </defs>
  <path
     d="m 12,4.9999999 c -3.0506,0 -5.9194,1.0732 -8,3 L 12,19 20,7.9999999 c -2.081,-1.9269 -4.949,-3 -8,-3 z m 0,3 c 1.11,0 2,0.9 2,2.0000001 0,1.11 -0.89,2 -2,2 v 1 h -1 v -2 h 1 c 0.56,0 1,-0.44 1,-1 0,-0.5499999 -0.44,-1.0000001 -1,-1.0000001 -0.55,0 -1,0.4500002 -1,1.0000001 H 10 C 10,8.8999999 10.9,7.9999999 12,7.9999999 Z M 11,14 h 1 v 1 h -1 z"
     style="fill:#f5a0ff;fill-opacity:1"
     class="ColorScheme-Text"
     id="path1" />
</svg>
