<?xml version="1.0" encoding="UTF-8" standalone="no"?>
<svg
   width="24"
   height="24"
   version="1.1"
   id="svg2"
   sodipodi:docname="temperature-symbolic.svg"
   inkscape:version="1.3.1 (91b66b0783, 2023-11-16)"
   xml:space="preserve"
   xmlns:inkscape="http://www.inkscape.org/namespaces/inkscape"
   xmlns:sodipodi="http://sodipodi.sourceforge.net/DTD/sodipodi-0.dtd"
   xmlns="http://www.w3.org/2000/svg"
   xmlns:svg="http://www.w3.org/2000/svg"><sodipodi:namedview
     id="namedview2"
     pagecolor="#505050"
     bordercolor="#eeeeee"
     borderopacity="1"
     inkscape:showpageshadow="0"
     inkscape:pageopacity="0"
     inkscape:pagecheckerboard="0"
     inkscape:deskcolor="#505050"
     inkscape:zoom="8"
     inkscape:cx="-14.6875"
     inkscape:cy="40.125"
     inkscape:window-width="950"
     inkscape:window-height="1035"
     inkscape:window-x="0"
     inkscape:window-y="0"
     inkscape:window-maximized="1"
     inkscape:current-layer="svg2" /><defs
     id="defs1"><style
       id="current-color-scheme"
       type="text/css">
   .ColorScheme-Text { color:#F5A97F; } .ColorScheme-Highlight { color:#5294e2; }
  </style></defs><g
     transform="matrix(0.0045025,0,0,-0.0045025,1.9620355,23.628652)"
     fill="#000000"
     stroke="none"
     id="g10"
     style="fill:#f5a0ff;fill-opacity:1"><path
       d="m 1686,5105 c -134,-34 -278,-148 -343,-271 -66,-125 -63,-16 -63,-1881 0,-1141 -3,-1694 -10,-1698 -23,-14 -94,-122 -131,-198 -55,-116 -72,-205 -66,-347 4,-73 13,-137 25,-175 80,-251 268,-435 517,-507 104,-29 286,-32 385,-4 259,71 465,277 536,536 13,46 18,101 18,185 0,181 -46,319 -153,456 l -51,64 v 1665 c 0,1030 -4,1692 -10,1735 -20,143 -130,306 -255,380 -113,65 -278,90 -399,60 z m 191,-2142 c 12,-8 26,-28 32,-45 8,-21 11,-322 11,-952 l 1,-921 39,-18 c 51,-24 113,-87 142,-145 19,-39 23,-63 23,-137 0,-78 -4,-97 -27,-140 -32,-60 -87,-114 -148,-146 -65,-34 -204,-34 -272,-1 -232,114 -244,438 -21,564 l 53,30 v 933 c 0,927 0,932 21,959 34,43 96,51 146,19 z"
       id="path1-7"
       style="fill:#f5a0ff;fill-opacity:1" /><path
       d="m 294,4263 c -12,-2 -34,-17 -49,-33 -41,-42 -39,-101 4,-143 l 31,-32 h 360 360 l 31,32 c 45,44 45,102 0,146 l -31,32 -343,1 c -188,1 -352,0 -363,-3 z"
       id="path2-5"
       style="fill:#f5a0ff;fill-opacity:1" /><path
       d="m 698,3824 c -65,-35 -73,-121 -17,-168 30,-25 35,-26 176,-26 h 145 l 29,29 c 54,54 36,146 -33,170 -48,17 -267,13 -300,-5 z"
       id="path3"
       style="fill:#f5a0ff;fill-opacity:1" /><path
       d="m 3230,3620 c -126,-20 -224,-73 -315,-171 -61,-67 -94,-124 -122,-214 -16,-55 -18,-103 -18,-570 0,-498 1,-512 22,-580 55,-174 203,-314 380,-360 81,-21 396,-21 478,0 223,59 395,275 395,498 0,51 -4,62 -29,88 -16,16 -40,30 -53,30 -88,5 -117,-26 -132,-141 -15,-107 -86,-202 -185,-249 -51,-24 -69,-26 -206,-29 -92,-3 -171,1 -205,8 -68,15 -151,67 -189,121 -62,85 -62,86 -59,635 l 3,499 27,50 c 32,60 87,114 148,146 41,22 59,24 222,27 198,4 242,-4 317,-59 75,-53 113,-131 136,-271 13,-84 114,-117 174,-57 27,27 31,37 31,88 0,123 -56,256 -148,350 -127,130 -214,162 -452,166 -91,2 -190,0 -220,-5 z"
       id="path4"
       style="fill:#f5a0ff;fill-opacity:1" /><path
       d="m 4520,3616 c -71,-16 -107,-35 -157,-86 -68,-67 -88,-119 -88,-225 0,-78 4,-97 27,-140 32,-60 87,-114 148,-146 37,-20 60,-24 135,-24 106,0 158,20 225,88 51,51 75,96 88,167 41,222 -157,414 -378,366 z m 139,-237 c 82,-81 -15,-218 -118,-165 -67,35 -78,122 -20,170 44,38 98,36 138,-5 z"
       id="path5"
       style="fill:#f5a0ff;fill-opacity:1" /><path
       d="m 681,3384 c -57,-48 -47,-135 19,-169 35,-18 249,-21 298,-4 69,24 87,116 33,170 l -29,29 H 857 c -141,0 -146,-1 -176,-26 z"
       id="path6"
       style="fill:#f5a0ff;fill-opacity:1" /><path
       d="m 294,2983 c -12,-2 -34,-17 -49,-33 -41,-42 -39,-101 4,-143 l 31,-32 h 360 360 l 31,32 c 45,44 45,102 0,146 l -31,32 -343,1 c -188,1 -352,0 -363,-3 z"
       id="path7"
       style="fill:#f5a0ff;fill-opacity:1" /><path
       d="m 698,2544 c -65,-35 -73,-121 -17,-168 30,-25 35,-26 176,-26 h 145 l 29,29 c 54,54 36,146 -33,170 -48,17 -267,13 -300,-5 z"
       id="path8"
       style="fill:#f5a0ff;fill-opacity:1" /><path
       d="m 681,2104 c -57,-48 -47,-135 19,-169 35,-18 249,-21 298,-4 69,24 87,116 33,170 l -29,29 H 857 c -141,0 -146,-1 -176,-26 z"
       id="path9"
       style="fill:#f5a0ff;fill-opacity:1" /><path
       d="m 294,1703 c -12,-2 -34,-17 -49,-33 -41,-42 -39,-101 4,-143 l 31,-32 h 360 360 l 31,32 c 45,44 45,102 0,146 l -31,32 -343,1 c -188,1 -352,0 -363,-3 z"
       id="path10"
       style="fill:#f5a0ff;fill-opacity:1" /></g></svg>
