<?xml version="1.0" encoding="UTF-8" standalone="no"?>
<svg
   width="16"
   height="16"
   version="1.1"
   id="svg3"
   sodipodi:docname="network-wireless-secure-signal-good.svg"
   inkscape:version="1.3.1 (91b66b0783, 2023-11-16)"
   xmlns:inkscape="http://www.inkscape.org/namespaces/inkscape"
   xmlns:sodipodi="http://sodipodi.sourceforge.net/DTD/sodipodi-0.dtd"
   xmlns="http://www.w3.org/2000/svg"
   xmlns:svg="http://www.w3.org/2000/svg">
  <sodipodi:namedview
     id="namedview3"
     pagecolor="#505050"
     bordercolor="#eeeeee"
     borderopacity="1"
     inkscape:showpageshadow="0"
     inkscape:pageopacity="0"
     inkscape:pagecheckerboard="0"
     inkscape:deskcolor="#505050"
     inkscape:zoom="54.5625"
     inkscape:cx="8.2840779"
     inkscape:cy="7.7709049"
     inkscape:window-width="1894"
     inkscape:window-height="851"
     inkscape:window-x="0"
     inkscape:window-y="0"
     inkscape:window-maximized="1"
     inkscape:current-layer="svg3" />
  <defs
     id="defs1">
    <style
       id="current-color-scheme"
       type="text/css">
   .ColorScheme-Text { color:#F5A97F; } .ColorScheme-Highlight { color:#5294e2; }
  </style>
  </defs>
  <path
     style="fill:#f5a0ff;fill-opacity:1"
     class="ColorScheme-Text"
     d="M 13,9 C 11.892,9 11,9.911 11,11.031 V 12 H 10 V 16 H 16 V 12 H 15 V 11.031 C 15,9.911 14.108,9 13,9 Z M 13,10 C 13.554,10 14,10.442 14,11 V 12 H 12 V 11 C 12,10.442 12.446,10 13,10 Z"
     id="path1" />
  <path
     style="opacity:0.3;fill:#f5a0ff;fill-opacity:1"
     class="ColorScheme-Text"
     d="M 8.029,2 8.031,2.002 C 4.9969,2.002 2.2653,3.2718 0,5.0156 L 8.031,13.996 9,12.9 V 11 H 10.014 C 10.033,9.365 11.356,8 13,8 13.104,8 13.203,8.021 13.305,8.031 L 16,4.9844 C 13.742,3.2633 11.04,2 8.029,2 Z"
     id="path2" />
  <path
     style="fill:#f5a0ff;fill-opacity:1"
     class="ColorScheme-Text"
     d="M 8.031,4.998 C 5.7884,4.998 3.4752,5.711 1.8008,7 L 8.031,14 9,12.9 V 11 H 10.014 C 10.033,9.365 11.356,8 13,8 13.1,8 13.194,8.021 13.291,8.031 L 14.199,7 C 12.532,5.7274 10.259,5.002 8.033,5.002 Z"
     id="path3" />
</svg>
