<?xml version="1.0" encoding="UTF-8" standalone="no"?>
<svg
   width="16"
   height="16"
   version="1.1"
   id="svg2"
   sodipodi:docname="network-wired-offline.svg"
   inkscape:version="1.3.1 (91b66b0783, 2023-11-16)"
   xmlns:inkscape="http://www.inkscape.org/namespaces/inkscape"
   xmlns:sodipodi="http://sodipodi.sourceforge.net/DTD/sodipodi-0.dtd"
   xmlns="http://www.w3.org/2000/svg"
   xmlns:svg="http://www.w3.org/2000/svg">
  <sodipodi:namedview
     id="namedview2"
     pagecolor="#505050"
     bordercolor="#eeeeee"
     borderopacity="1"
     inkscape:showpageshadow="0"
     inkscape:pageopacity="0"
     inkscape:pagecheckerboard="0"
     inkscape:deskcolor="#505050"
     inkscape:zoom="54.5625"
     inkscape:cx="7.9908362"
     inkscape:cy="8.0091638"
     inkscape:window-width="1910"
     inkscape:window-height="1035"
     inkscape:window-x="0"
     inkscape:window-y="0"
     inkscape:window-maximized="1"
     inkscape:current-layer="svg2" />
  <defs
     id="defs1">
    <style
       id="current-color-scheme"
       type="text/css">
   .ColorScheme-Text { color:#F5A97F; } .ColorScheme-Highlight { color:#5294e2; }
  </style>
  </defs>
  <path
     style="opacity:0.3;fill:#f5a0ff;fill-opacity:1"
     class="ColorScheme-Text"
     d="M 2,2 C 2,2 1,2 1,3 V 12 C 1,13 2,13 2,13 H 4 L 5,14 H 10 V 12 H 6 L 5,11 H 3 V 4 H 13 V 10 H 15 V 3 C 15,2 14,2 14,2 Z"
     id="path1" />
  <path
     style="fill:#f5a0ff;fill-opacity:1"
     class="ColorScheme-Text"
     d="M 11,11 V 12 C 11,12.28 11.1,12.54 11.281,12.72 L 12.063,13.5 11.281,14.28 C 11.1,14.46 11,14.72 11,15 V 16 H 12 C 12.276,16 12.538,15.9 12.719,15.72 L 13.5,14.94 14.281,15.72 C 14.462,15.9 14.724,16 15,16 H 16 V 15 C 16,14.72 15.9,14.46 15.719,14.28 L 14.938,13.5 15.719,12.72 C 15.9,12.54 16,12.28 16,12 V 11 H 15 C 14.724,11 14.462,11.1 14.281,11.28 L 13.5,12.06 12.719,11.28 C 12.538,11.1 12.276,11 12,11 Z"
     id="path2" />
</svg>
