<?xml version="1.0" encoding="UTF-8" standalone="no"?>
<svg
   width="22"
   height="22"
   version="1.1"
   id="svg2"
   sodipodi:docname="network-wireless-offline.svg"
   inkscape:version="1.3.1 (91b66b0783, 2023-11-16)"
   xmlns:inkscape="http://www.inkscape.org/namespaces/inkscape"
   xmlns:sodipodi="http://sodipodi.sourceforge.net/DTD/sodipodi-0.dtd"
   xmlns="http://www.w3.org/2000/svg"
   xmlns:svg="http://www.w3.org/2000/svg">
  <sodipodi:namedview
     id="namedview2"
     pagecolor="#505050"
     bordercolor="#eeeeee"
     borderopacity="1"
     inkscape:showpageshadow="0"
     inkscape:pageopacity="0"
     inkscape:pagecheckerboard="0"
     inkscape:deskcolor="#505050"
     inkscape:zoom="39.681818"
     inkscape:cx="10.9874"
     inkscape:cy="11.0126"
     inkscape:window-width="1894"
     inkscape:window-height="903"
     inkscape:window-x="0"
     inkscape:window-y="0"
     inkscape:window-maximized="1"
     inkscape:current-layer="svg2" />
  <defs
     id="defs1">
    <style
       id="current-color-scheme"
       type="text/css">
   .ColorScheme-Text { color:#F5A97F; } .ColorScheme-Highlight { color:#5294e2; }
  </style>
  </defs>
  <path
     style="fill:#f5a0ff;fill-opacity:1"
     class="ColorScheme-Text"
     d="m 14,14 v 1 c 0,0.28 0.1,0.54 0.28,0.72 l 0.78,0.78 -0.78,0.78 C 14.1,17.47 14,17.73 14,18 v 1 h 1 c 0.28,0 0.54,-0.1 0.72,-0.28 l 0.78,-0.78 0.78,0.78 C 17.46,18.9 17.73,19 18,19 h 1 v -1 c 0,-0.27 -0.1,-0.53 -0.28,-0.72 L 17.94,16.5 18.72,15.72 C 18.9,15.54 19,15.28 19,15 v -1 h -1 c -0.27,0 -0.54,0.1 -0.72,0.28 L 16.5,15.07 15.72,14.28 C 15.54,14.1 15.28,14 15,14 Z"
     id="path1" />
  <path
     style="opacity:0.3;fill:#f5a0ff;fill-opacity:1"
     class="ColorScheme-Text"
     d="M 11,4 C 7.9494,4 5.0806,5.0732 3,7 l 8,11 2.019531,-2.777344 C 13.011891,15.148415 13,15.074553 13,15 v -1 -1 h 1.636719 L 19,7 C 16.919,5.0731 14.051,4 11,4 Z"
     id="path2" />
</svg>
