<?xml version="1.0" encoding="UTF-8" standalone="no"?>
<svg
   width="22"
   height="22"
   version="1.1"
   id="svg2"
   sodipodi:docname="network-wired-offline.svg"
   inkscape:version="1.3.1 (91b66b0783, 2023-11-16)"
   xmlns:inkscape="http://www.inkscape.org/namespaces/inkscape"
   xmlns:sodipodi="http://sodipodi.sourceforge.net/DTD/sodipodi-0.dtd"
   xmlns="http://www.w3.org/2000/svg"
   xmlns:svg="http://www.w3.org/2000/svg">
  <sodipodi:namedview
     id="namedview2"
     pagecolor="#505050"
     bordercolor="#eeeeee"
     borderopacity="1"
     inkscape:showpageshadow="0"
     inkscape:pageopacity="0"
     inkscape:pagecheckerboard="0"
     inkscape:deskcolor="#505050"
     inkscape:zoom="39.681818"
     inkscape:cx="11"
     inkscape:cy="11"
     inkscape:window-width="1910"
     inkscape:window-height="894"
     inkscape:window-x="0"
     inkscape:window-y="0"
     inkscape:window-maximized="1"
     inkscape:current-layer="g2" />
  <defs
     id="defs1">
    <style
       id="current-color-scheme"
       type="text/css">
   .ColorScheme-Text { color:#F5A97F; } .ColorScheme-Highlight { color:#5294e2; }
  </style>
  </defs>
  <g
     transform="translate(-57 -551.36)"
     id="g2">
    <path
       opacity=".3"
       style="fill:#f5a0ff;fill-opacity:1"
       class="ColorScheme-Text"
       d="m62 556.36s-1 0-1 1v9c0 1 1 1 1 1h2l1 1h5v-2h-4l-1-1h-2v-7h10v6h2v-7c0-1-1-1-1-1h-12z"
       id="path1" />
    <path
       style="fill:#f5a0ff;fill-opacity:1"
       class="ColorScheme-Text"
       d="m71 565.36v1c0 0.27614 0.10029 0.53779 0.28125 0.71875l0.78125 0.78125-0.78125 0.78125c-0.18096 0.18096-0.28125 0.44261-0.28125 0.71875v1h1c0.27614 0 0.53779-0.10029 0.71875-0.28125l0.78125-0.78125 0.78125 0.78125c0.18096 0.18096 0.44261 0.28125 0.71875 0.28125h1v-1c0-0.27614-0.10029-0.53779-0.28125-0.71875l-0.78125-0.78125 0.78125-0.78125c0.18096-0.18096 0.28125-0.44261 0.28125-0.71875v-1h-1c-0.27614 0-0.53779 0.10029-0.71875 0.28125l-0.78125 0.78125-0.78125-0.78125c-0.18096-0.18096-0.44261-0.28125-0.71875-0.28125h-1z"
       id="path2" />
  </g>
</svg>
