<?xml version="1.0" encoding="UTF-8" standalone="no"?>
<svg
   width="22"
   height="22"
   version="1.1"
   id="svg1"
   sodipodi:docname="network-wireless-no-route.svg"
   inkscape:version="1.3.1 (91b66b0783, 2023-11-16)"
   xmlns:inkscape="http://www.inkscape.org/namespaces/inkscape"
   xmlns:sodipodi="http://sodipodi.sourceforge.net/DTD/sodipodi-0.dtd"
   xmlns="http://www.w3.org/2000/svg"
   xmlns:svg="http://www.w3.org/2000/svg">
  <sodipodi:namedview
     id="namedview1"
     pagecolor="#505050"
     bordercolor="#eeeeee"
     borderopacity="1"
     inkscape:showpageshadow="0"
     inkscape:pageopacity="0"
     inkscape:pagecheckerboard="0"
     inkscape:deskcolor="#505050"
     inkscape:zoom="39.681818"
     inkscape:cx="11.0126"
     inkscape:cy="11"
     inkscape:window-width="1230"
     inkscape:window-height="1016"
     inkscape:window-x="0"
     inkscape:window-y="0"
     inkscape:window-maximized="1"
     inkscape:current-layer="svg1" />
  <defs
     id="defs1">
    <style
       id="current-color-scheme"
       type="text/css">
   .ColorScheme-Text { color:#F5A97F; } .ColorScheme-Highlight { color:#5294e2; }
  </style>
  </defs>
  <path
     d="m 11,3.9999998 c -3.0506001,0 -5.9194001,1.0732 -8.0000001,3 L 11,18 19,6.9999998 c -2.081,-1.9269 -4.949,-3 -8,-3 z m 0,3 c 1.11,0 2,0.9 2,2 C 13,10.11 12.11,11 11,11 v 1 H 9.9999999 V 9.9999998 H 11 c 0.56,0 1,-0.44 1,-1 0,-0.55 -0.44,-1 -1,-1 -0.55,0 -1.0000001,0.45 -1.0000001,1 h -1 c 0,-1.1 0.9,-2 2.0000001,-2 z M 9.9999999,13 H 11 v 1 H 9.9999999 Z"
     style="fill:#f5a0ff;fill-opacity:1"
     class="ColorScheme-Text"
     id="path1" />
</svg>
