<?xml version="1.0" encoding="UTF-8" standalone="no"?>
<svg
   width="22"
   height="22"
   version="1.1"
   id="svg1"
   sodipodi:docname="nm-vpn-standalone-lock.svg"
   inkscape:version="1.3.1 (91b66b0783, 2023-11-16)"
   xmlns:inkscape="http://www.inkscape.org/namespaces/inkscape"
   xmlns:sodipodi="http://sodipodi.sourceforge.net/DTD/sodipodi-0.dtd"
   xmlns="http://www.w3.org/2000/svg"
   xmlns:svg="http://www.w3.org/2000/svg">
  <sodipodi:namedview
     id="namedview1"
     pagecolor="#505050"
     bordercolor="#eeeeee"
     borderopacity="1"
     inkscape:showpageshadow="0"
     inkscape:pageopacity="0"
     inkscape:pagecheckerboard="0"
     inkscape:deskcolor="#505050"
     inkscape:zoom="39.681818"
     inkscape:cx="10.9874"
     inkscape:cy="11.0126"
     inkscape:window-width="1910"
     inkscape:window-height="1035"
     inkscape:window-x="0"
     inkscape:window-y="0"
     inkscape:window-maximized="1"
     inkscape:current-layer="svg1" />
  <defs
     id="defs1">
    <style
       id="current-color-scheme"
       type="text/css">
   .ColorScheme-Text { color:#F5A97F; } .ColorScheme-Highlight { color:#5294e2; }
  </style>
  </defs>
  <g
     transform="translate(-177 -575.36)"
     id="g1">
    <path
       style="fill:#f5a0ff;fill-opacity:1"
       class="ColorScheme-Text"
       d="m188 579.36c-2.216 0-4 1.8216-4 4.0625v1.9375h-1c-0.554 0-1 0.446-1 1v6c0 0.554 0.446 1 1 1h10c0.554 0 1-0.446 1-1v-6c0-0.554-0.446-1-1-1h-1v-1.9375c0-2.24-1.784-4.0625-4-4.0625zm0 2c1.108 0 2 0.892 2 2v2h-4v-2c0-1.108 0.892-2 2-2z"
       id="path1" />
  </g>
</svg>
